<svg width="46" height="35" viewBox="0 0 46 35" fill="none" xmlns="http://www.w3.org/2000/svg">
<g id="&#208;&#154;&#208;&#189;&#208;&#190;&#208;&#191;&#208;&#186;&#208;&#176; &#34;&#208;&#148;&#208;&#190;&#208;&#177;&#208;&#176;&#208;&#178;&#208;&#184;&#209;&#130;&#209;&#140; &#209;&#129;&#208;&#181;&#209;&#128;&#208;&#178;&#208;&#184;&#209;&#129;&#34;">
<rect x="0.5" width="45" height="35" rx="5" fill="#004F9E"/>
<g id="Vector">
<path d="M23 10C23.6213 10 24.125 10.5037 24.125 11.125V23.875C24.125 24.4963 23.6213 25 23 25C22.3787 25 21.875 24.4963 21.875 23.875V11.125C21.875 10.5037 22.3787 10 23 10Z" fill="white"/>
<path d="M15.5 17.875C15.5 17.2537 16.0037 16.75 16.625 16.75H29.375C29.9963 16.75 30.5 17.2537 30.5 17.875C30.5 18.4963 29.9963 19 29.375 19H16.625C16.0037 19 15.5 18.4963 15.5 17.875Z" fill="white"/>
</g>
</g>
</svg>
