<svg width="23" height="20" viewBox="0 0 23 20" fill="none" xmlns="http://www.w3.org/2000/svg">
<g id="Vector">
<path d="M12.8183 0L12.4264 1.93885C11.7728 2.17731 11.1685 2.51047 10.6378 2.93079L8.70769 2.28851L6.85068 5.39487L8.39508 6.68994C8.34031 7.01414 8.30487 7.34425 8.30487 7.68338C8.30487 8.02251 8.34032 8.35261 8.39508 8.67682L6.85068 9.97189L8.70769 13.0783L10.6378 12.436C11.1685 12.8563 11.7728 13.1894 12.4264 13.4279L12.8183 15.3668H16.5324L16.9243 13.4279C17.5779 13.1894 18.1822 12.8563 18.7129 12.436L20.643 13.0783L22.5 9.97189L20.9556 8.67682C21.0104 8.35262 21.0458 8.02251 21.0458 7.68338C21.0458 7.34425 21.0104 7.01415 20.9556 6.68994L22.5 5.39487L20.643 2.28851L18.7129 2.93079C18.1822 2.51047 17.5779 2.17732 16.9243 1.93885L16.5324 0H12.8183ZM14.6753 4.61002C16.4344 4.61002 17.8606 5.98612 17.8606 7.68337C17.8606 9.38063 16.4344 10.7567 14.6753 10.7567C12.9163 10.7567 11.4901 9.38063 11.4901 7.68337C11.4901 5.98612 12.9163 4.61002 14.6753 4.61002Z" fill="#004F9E"/>
<path d="M1.57425 13.43L1.95418 14.3452C1.74822 14.6214 1.58936 14.9238 1.48569 15.2427L0.5 15.4963L0.595691 17.2949L1.60338 17.418C1.67141 17.5681 1.74915 17.7155 1.84422 17.857C1.93929 17.9986 2.04663 18.1268 2.16037 18.2473L1.87878 19.2053L3.52472 20L4.1503 19.2102C4.48964 19.2422 4.83528 19.2179 5.17494 19.1408L5.88206 19.8441L7.43231 18.8402L7.05238 17.925C7.25834 17.6488 7.41719 17.3464 7.52087 17.0275L8.50655 16.7739L8.41086 14.9753L7.40318 14.8522C7.33515 14.7021 7.2574 14.5547 7.16233 14.4132C7.06727 14.2716 6.95993 14.1434 6.84619 14.0229L7.12778 13.0649L5.48184 12.2702L4.85625 13.06C4.51692 13.028 4.17127 13.0523 3.83162 13.1294L3.1245 12.4261L1.57425 13.43ZM3.64171 14.8523C4.37595 14.3768 5.35701 14.5657 5.8328 15.2741C6.3086 15.9826 6.09907 16.9425 5.36484 17.4179C4.63061 17.8934 3.64954 17.7045 3.17375 16.9961C2.69795 16.2876 2.90748 15.3277 3.64171 14.8523Z" fill="#004F9E"/>
</g>
</svg>
