<svg width="20" height="20" viewBox="0 0 20 20" fill="none" xmlns="http://www.w3.org/2000/svg">
<path d="M9.6875 0C4.33594 0 0 4.33594 0 9.6875C0 15.0391 4.33594 19.375 9.6875 19.375C15.0391 19.375 19.375 15.0391 19.375 9.6875C19.375 4.33594 15.0391 0 9.6875 0ZM14.4375 12.2305C14.6211 12.4141 14.6211 12.7109 14.4375 12.8945L12.8906 14.4375C12.707 14.6211 12.4102 14.6211 12.2266 14.4375L9.6875 11.875L7.14453 14.4375C6.96094 14.6211 6.66406 14.6211 6.48047 14.4375L4.9375 12.8906C4.75391 12.707 4.75391 12.4102 4.9375 12.2266L7.5 9.6875L4.9375 7.14453C4.75391 6.96094 4.75391 6.66406 4.9375 6.48047L6.48438 4.93359C6.66797 4.75 6.96484 4.75 7.14844 4.93359L9.6875 7.5L12.2305 4.9375C12.4141 4.75391 12.7109 4.75391 12.8945 4.9375L14.4414 6.48438C14.625 6.66797 14.625 6.96484 14.4414 7.14844L11.875 9.6875L14.4375 12.2305Z" fill="#9E0000"/>
</svg>
