<svg width="21" height="20" viewBox="0 0 21 20" fill="none" xmlns="http://www.w3.org/2000/svg">
<path id="Vector" d="M10.5 0C8.65559 0 7.1198 1.31071 6.86203 3H3.26512C3.22035 2.99271 3.175 2.98912 3.12959 2.98926C3.09034 2.99007 3.05121 2.99365 3.01253 3H1.29982C1.01543 2.99618 0.750898 3.13828 0.607528 3.3719C0.464157 3.60553 0.464157 3.89448 0.607528 4.1281C0.750898 4.36172 1.01543 4.50383 1.29982 4.5H2.42417L3.74772 17.5147C3.89024 18.918 5.1438 20 6.62586 20H14.3731C15.8552 20 17.1088 18.9181 17.2513 17.5147L18.5758 4.5H19.7002C19.9846 4.50383 20.2491 4.36172 20.3925 4.1281C20.5358 3.89447 20.5358 3.60552 20.3925 3.3719C20.2491 3.13828 19.9846 2.99618 19.7002 3H17.9885C17.9048 2.9871 17.8196 2.9871 17.7359 3H14.138C13.8802 1.31071 12.3444 0 10.5 0ZM10.5 1.5C11.4879 1.5 12.2984 2.13408 12.53 3H8.47C8.70162 2.13408 9.51208 1.5 10.5 1.5ZM4.00751 4.5H16.9915L15.6813 17.3701C15.6155 18.0177 15.057 18.5 14.3731 18.5H6.62586C5.94299 18.5 5.38338 18.0168 5.31771 17.3701L4.00751 4.5ZM8.64764 6.98926C8.21252 6.99572 7.86514 7.33616 7.87138 7.75V15.25C7.86735 15.5205 8.01677 15.7721 8.26242 15.9084C8.50806 16.0448 8.81187 16.0448 9.05751 15.9084C9.30316 15.7721 9.45257 15.5205 9.44855 15.25V7.75C9.45161 7.54719 9.36818 7.35185 9.21728 7.20852C9.06638 7.06519 8.86088 6.98609 8.64764 6.98926ZM12.3277 6.98926C11.8926 6.99572 11.5452 7.33616 11.5514 7.75V15.25C11.5474 15.5205 11.6968 15.7721 11.9425 15.9084C12.1881 16.0448 12.4919 16.0448 12.7376 15.9084C12.9832 15.7721 13.1326 15.5205 13.1286 15.25V7.75C13.1317 7.54719 13.0483 7.35185 12.8974 7.20852C12.7465 7.06519 12.541 6.98609 12.3277 6.98926Z" fill="#004F9E"/>
</svg>
