<svg width="35" height="35" viewBox="0 0 35 35" fill="none" xmlns="http://www.w3.org/2000/svg">
<path d="M34.6061 30.079C35.7277 32.2661 34.3198 35 32.0797 35H2.91996C0.675529 35 -0.725807 32.2619 0.393585 30.079L14.9736 1.6396C16.0958 -0.548515 18.9063 -0.54455 20.0264 1.6396L34.6061 30.079ZM17.5 24.1992C15.9563 24.1992 14.7049 25.6071 14.7049 27.3438C14.7049 29.0804 15.9563 30.4883 17.5 30.4883C19.0437 30.4883 20.2951 29.0804 20.2951 27.3438C20.2951 25.6071 19.0437 24.1992 17.5 24.1992ZM14.8463 12.8963L15.297 22.1931C15.3181 22.6282 15.6378 22.9688 16.0251 22.9688H18.9749C19.3622 22.9688 19.6819 22.6282 19.703 22.1931L20.1538 12.8963C20.1765 12.4264 19.844 12.0312 19.4257 12.0312H15.5743C15.156 12.0312 14.8235 12.4264 14.8463 12.8963Z" fill="#FF9F05"/>
</svg>
